# xmcd
#
# Track frame offsets:
#	150
#	12070
#	24740
#	48269
#	65467
#	82477
#	101135
#	116564
#	133801
#	149233
#	166365
#	183382
#	199284
#	215333
#	232026
#	249204
#	269471
#	283676
#	305823
#
# Disc length: 4235 seconds
#
# Revision: 1
# Processed by: cddbd v1.5.2PL0 Copyright (c) Steve Scherf et al.
# Submitted via: audiograbber 1.83.01
#
DISCID=2b108913
DTITLE=Various Artist - Heart Of The Country [Disc 2]
DYEAR=2015
DGENRE=Country
TTITLE0=Sara Storer - Back In The Territory
TTITLE1=Paul Kelly - Sydney From A 747
TTITLE2=Adam Brand - The Anzac (Acoustic Version)
TTITLE3=Slim Dusty - Where Country Is
TTITLE4=John Williamson - Sing You The Outback
TTITLE5=The Wolfe Brothers - High Vis Anthem
TTITLE6=The McClymonts - Blood Is Thicker Than Water
TTITLE7=Adam Harvey - The Shake Of A Hand
TTITLE8=Gina Jeffreys - Hard Working Man
TTITLE9=The Viper Creek Band - My Hometown
TTITLE10=Courtney Conway - Free Like The Summer Breeze
TTITLE11=Liam Brew - Top That Comes Off
TTITLE12=Little Bastard - Crosses On The Highway
TTITLE13=Amber Lawrence - The Lifesaver
TTITLE14=Lachlan Bryan and the Wildes - Streets Of My Hometown
TTITLE15=The Bushwackers - I Am Australian
TTITLE16=Wolverines - Proud To Be Australian
TTITLE17=Ted Egan - Queensland Opera
TTITLE18=Ian Simpson and John Kane - Waltzing Matilda (Instrumental)
EXTD=Australian Country Music
EXTT0=
EXTT1=
EXTT2=
EXTT3=
EXTT4=
EXTT5=
EXTT6=
EXTT7=
EXTT8=
EXTT9=
EXTT10=
EXTT11=
EXTT12=
EXTT13=
EXTT14=
EXTT15=
EXTT16=
EXTT17=
EXTT18=
PLAYORDER=
